<svg width="41" height="41" viewBox="0 0 41 41" fill="none" xmlns="http://www.w3.org/2000/svg">
<rect x="0.5" y="0.5" width="40" height="40" rx="20" fill="#FDFDFE"/>
<rect x="0.5" y="0.5" width="40" height="40" rx="20" stroke="#212F8A"/>
<path d="M11 20.6667L10.2929 19.9596L9.58579 20.6667L10.2929 21.3738L11 20.6667ZM31 21.6667C31.5523 21.6667 32 21.219 32 20.6667C32 20.1144 31.5523 19.6667 31 19.6667V21.6667ZM16.9596 13.2929L10.2929 19.9596L11.7071 21.3738L18.3738 14.7071L16.9596 13.2929ZM10.2929 21.3738L16.9596 28.0404L18.3738 26.6262L11.7071 19.9596L10.2929 21.3738ZM11 21.6667H31V19.6667H11V21.6667Z" fill="#212F8A"/>
</svg>
