<svg width="41" height="41" viewBox="0 0 41 41" fill="none" xmlns="http://www.w3.org/2000/svg">
<rect x="0.5" y="0.5" width="40" height="40" rx="20" fill="#212F8A"/>
<rect x="0.5" y="0.5" width="40" height="40" rx="20" stroke="#FDFDFE"/>
<path d="M31 20.6667L31.7071 19.9596L32.4142 20.6667L31.7071 21.3738L31 20.6667ZM11 21.6667C10.4477 21.6667 10 21.219 10 20.6667C10 20.1144 10.4477 19.6667 11 19.6667V21.6667ZM25.0404 13.2929L31.7071 19.9596L30.2929 21.3738L23.6262 14.7071L25.0404 13.2929ZM31.7071 21.3738L25.0404 28.0404L23.6262 26.6262L30.2929 19.9596L31.7071 21.3738ZM31 21.6667H11V19.6667H31V21.6667Z" fill="#FDFDFE"/>
</svg>
