<svg width="133" height="130" viewBox="0 0 133 130" fill="none" xmlns="http://www.w3.org/2000/svg">
<g filter="url(#filter0_d_1453_1065)">
<path d="M15.4694 125.637C9.9466 125.637 5.46949 121.16 5.46949 115.637L5.46949 43.739C5.46949 34.7045 16.5006 30.3018 22.7214 36.8535L31.0136 45.5869L41.5651 55.9559C43.4604 57.8184 44.5365 60.3586 44.5558 63.0158L44.6476 75.666C44.6877 81.2001 49.2152 85.6493 54.7492 85.5929L67.3992 85.464C70.0563 85.4369 72.6149 86.4685 74.5102 88.3309L85.0618 98.6999L94.9157 108.574C101.205 114.877 96.7415 125.638 87.8373 125.638L15.4694 125.637Z" fill="#212F8A"/>
</g>
<g filter="url(#filter1_i_1453_1065)">
<path d="M15.7763 119.216C13.5671 119.216 11.7763 117.425 11.7763 115.216L11.7763 45.3644C11.7763 41.8702 15.9418 40.0557 18.5004 42.4354L32.4334 55.3936L38.7195 61.571C39.4887 62.3269 39.9201 63.3613 39.9159 64.4397L39.8284 86.6846C39.8197 88.8943 41.6043 90.6923 43.8139 90.7003L66.8245 90.7836C67.8682 90.7874 68.8692 91.199 69.6137 91.9306L74.8717 97.0977L89.1891 112.492C91.5687 115.051 89.7542 119.216 86.2601 119.216L15.7763 119.216Z" fill="#212F8A"/>
</g>
<g filter="url(#filter2_d_1453_1065)">
<path d="M19.0409 114.577C17.9363 114.577 17.0409 113.681 17.0409 112.577L17.0409 50.5345C17.0409 48.7498 19.2011 47.8588 20.4593 49.1245L32.9453 61.6855L35.4796 64.6226C35.793 64.9857 35.9654 65.4495 35.9654 65.9291L35.9654 93.3188C35.9654 94.4234 36.8608 95.3188 37.9654 95.3188L66.6023 95.3188C67.1413 95.3188 67.6576 95.5364 68.034 95.9223L69.5733 97.5005L82.3205 111.215C83.5097 112.494 82.6024 114.577 80.8556 114.577L19.0409 114.577Z" fill="#212F8A"/>
</g>
<defs>
<filter id="filter0_d_1453_1065" x="0.46875" y="33.7188" width="97.3887" height="95.918" filterUnits="userSpaceOnUse" color-interpolation-filters="sRGB">
<feFlood flood-opacity="0" result="BackgroundImageFix"/>
<feColorMatrix in="SourceAlpha" type="matrix" values="0 0 0 0 0 0 0 0 0 0 0 0 0 0 0 0 0 0 127 0" result="hardAlpha"/>
<feOffset dx="-3" dy="2"/>
<feGaussianBlur stdDeviation="1"/>
<feComposite in2="hardAlpha" operator="out"/>
<feColorMatrix type="matrix" values="0 0 0 0 0 0 0 0 0 0 0 0 0 0 0 0 0 0 0.2 0"/>
<feBlend mode="normal" in2="BackgroundImageFix" result="effect1_dropShadow_1453_1065"/>
<feBlend mode="normal" in="SourceGraphic" in2="effect1_dropShadow_1453_1065" result="shape"/>
</filter>
<filter id="filter1_i_1453_1065" x="9.77539" y="41.3555" width="80.4922" height="79.8594" filterUnits="userSpaceOnUse" color-interpolation-filters="sRGB">
<feFlood flood-opacity="0" result="BackgroundImageFix"/>
<feBlend mode="normal" in="SourceGraphic" in2="BackgroundImageFix" result="shape"/>
<feColorMatrix in="SourceAlpha" type="matrix" values="0 0 0 0 0 0 0 0 0 0 0 0 0 0 0 0 0 0 127 0" result="hardAlpha"/>
<feOffset dx="-2" dy="2"/>
<feGaussianBlur stdDeviation="1"/>
<feComposite in2="hardAlpha" operator="arithmetic" k2="-1" k3="1"/>
<feColorMatrix type="matrix" values="0 0 0 0 0 0 0 0 0 0 0 0 0 0 0 0 0 0 0.2 0"/>
<feBlend mode="normal" in2="shape" result="effect1_innerShadow_1453_1065"/>
</filter>
<filter id="filter2_d_1453_1065" x="13.041" y="48.5312" width="69.8184" height="70.0469" filterUnits="userSpaceOnUse" color-interpolation-filters="sRGB">
<feFlood flood-opacity="0" result="BackgroundImageFix"/>
<feColorMatrix in="SourceAlpha" type="matrix" values="0 0 0 0 0 0 0 0 0 0 0 0 0 0 0 0 0 0 127 0" result="hardAlpha"/>
<feOffset dx="-2" dy="2"/>
<feGaussianBlur stdDeviation="1"/>
<feComposite in2="hardAlpha" operator="out"/>
<feColorMatrix type="matrix" values="0 0 0 0 0 0 0 0 0 0 0 0 0 0 0 0 0 0 0.2 0"/>
<feBlend mode="normal" in2="BackgroundImageFix" result="effect1_dropShadow_1453_1065"/>
<feBlend mode="normal" in="SourceGraphic" in2="effect1_dropShadow_1453_1065" result="shape"/>
</filter>
</defs>
</svg>
