<svg width="130" height="128" viewBox="0 0 130 128" fill="none" xmlns="http://www.w3.org/2000/svg">
<g filter="url(#filter0_d_1453_1066)">
<path d="M117.949 0.229908C123.471 0.229949 127.948 4.70709 127.948 10.2299L127.948 82.1282C127.948 91.1627 116.917 95.5654 110.697 89.0137L102.404 80.2802L91.8528 69.9113C89.9575 68.0488 88.8815 65.5086 88.8622 62.8514L88.7704 50.2012C88.7303 44.6671 84.2028 40.2179 78.6688 40.2743L66.0187 40.4032C63.3616 40.4303 60.803 39.3987 58.9077 37.5363L48.3562 27.1673L38.5023 17.2932C32.2125 10.9905 36.6765 0.229257 45.5806 0.229328L117.949 0.229908Z" fill="#212F8A"/>
</g>
<g filter="url(#filter1_i_1453_1066)">
<path d="M117.642 6.65129C119.851 6.6513 121.642 8.44216 121.642 10.6513L121.642 80.5028C121.642 83.997 117.476 85.8115 114.918 83.4318L100.985 70.4736L94.6984 64.2962C93.9293 63.5403 93.4979 62.5059 93.5021 61.4275L93.5896 39.1825C93.5983 36.9729 91.8137 35.1748 89.6041 35.1668L66.5935 35.0836C65.5497 35.0798 64.5488 34.6682 63.8043 33.9366L58.5462 28.7695L44.2289 13.375C41.8492 10.8164 43.6638 6.65091 47.1579 6.65093L117.642 6.65129Z" fill="#212F8A"/>
</g>
<g filter="url(#filter2_d_1453_1066)">
<path d="M114.377 11.2906C115.482 11.2906 116.377 12.1861 116.377 13.2906L116.377 75.3327C116.377 77.1174 114.217 78.0084 112.959 76.7427L100.473 64.1816L97.9384 61.2446C97.625 60.8814 97.4526 60.4177 97.4526 59.938L97.4526 32.5484C97.4526 31.4438 96.5571 30.5484 95.4526 30.5484L66.8157 30.5484C66.2766 30.5484 65.7604 30.3308 65.384 29.9449L63.8447 28.3667L51.0975 14.6523C49.9082 13.3728 50.8156 11.2907 52.5624 11.2907L114.377 11.2906Z" fill="#212F8A"/>
</g>
<defs>
<filter id="filter0_d_1453_1066" x="33.5605" y="0.230469" width="96.3887" height="95.918" filterUnits="userSpaceOnUse" color-interpolation-filters="sRGB">
<feFlood flood-opacity="0" result="BackgroundImageFix"/>
<feColorMatrix in="SourceAlpha" type="matrix" values="0 0 0 0 0 0 0 0 0 0 0 0 0 0 0 0 0 0 127 0" result="hardAlpha"/>
<feOffset dy="2"/>
<feGaussianBlur stdDeviation="1"/>
<feComposite in2="hardAlpha" operator="out"/>
<feColorMatrix type="matrix" values="0 0 0 0 0 0 0 0 0 0 0 0 0 0 0 0 0 0 0.2 0"/>
<feBlend mode="normal" in2="BackgroundImageFix" result="effect1_dropShadow_1453_1066"/>
<feBlend mode="normal" in="SourceGraphic" in2="effect1_dropShadow_1453_1066" result="shape"/>
</filter>
<filter id="filter1_i_1453_1066" x="41.1504" y="6.65234" width="80.4922" height="79.8594" filterUnits="userSpaceOnUse" color-interpolation-filters="sRGB">
<feFlood flood-opacity="0" result="BackgroundImageFix"/>
<feBlend mode="normal" in="SourceGraphic" in2="BackgroundImageFix" result="shape"/>
<feColorMatrix in="SourceAlpha" type="matrix" values="0 0 0 0 0 0 0 0 0 0 0 0 0 0 0 0 0 0 127 0" result="hardAlpha"/>
<feOffset dx="-2" dy="2"/>
<feGaussianBlur stdDeviation="1"/>
<feComposite in2="hardAlpha" operator="arithmetic" k2="-1" k3="1"/>
<feColorMatrix type="matrix" values="0 0 0 0 0 0 0 0 0 0 0 0 0 0 0 0 0 0 0.2 0"/>
<feBlend mode="normal" in2="shape" result="effect1_innerShadow_1453_1066"/>
</filter>
<filter id="filter2_d_1453_1066" x="46.5586" y="10.2891" width="69.8184" height="70.0469" filterUnits="userSpaceOnUse" color-interpolation-filters="sRGB">
<feFlood flood-opacity="0" result="BackgroundImageFix"/>
<feColorMatrix in="SourceAlpha" type="matrix" values="0 0 0 0 0 0 0 0 0 0 0 0 0 0 0 0 0 0 127 0" result="hardAlpha"/>
<feOffset dx="-2" dy="1"/>
<feGaussianBlur stdDeviation="1"/>
<feComposite in2="hardAlpha" operator="out"/>
<feColorMatrix type="matrix" values="0 0 0 0 0 0 0 0 0 0 0 0 0 0 0 0 0 0 0.2 0"/>
<feBlend mode="normal" in2="BackgroundImageFix" result="effect1_dropShadow_1453_1066"/>
<feBlend mode="normal" in="SourceGraphic" in2="effect1_dropShadow_1453_1066" result="shape"/>
</filter>
</defs>
</svg>
