<svg width="60" height="58" viewBox="0 0 60 58" fill="none" xmlns="http://www.w3.org/2000/svg">
<g filter="url(#filter0_d_2139_128985)">
<path d="M10.9331 53.6183C8.17169 53.6183 5.93315 51.3798 5.93315 48.6183L5.93315 20.5001C5.93315 15.9828 11.4487 13.7814 14.5591 17.0573L16.8349 19.4542L21.1214 23.6665C22.069 24.5978 22.6071 25.8679 22.6167 27.1965L22.6483 31.5571C22.6684 34.3242 24.9322 36.5488 27.6992 36.5206L32.0598 36.4762C33.3883 36.4626 34.6677 36.9784 35.6153 37.9096L39.9017 42.1219L42.8604 45.0866C46.0053 48.238 43.7733 53.6186 39.3212 53.6186L10.9331 53.6183Z" fill="#212F8A"/>
</g>
<g filter="url(#filter1_i_2139_128985)">
<path d="M13.6237 50.8794C10.8622 50.8794 8.62368 48.6408 8.62368 45.8794L8.62368 26.9202C8.62368 22.5525 13.8305 20.2844 17.0288 23.259L17.4398 23.6411L19.1323 25.3044C20.0938 26.2492 20.633 27.5423 20.6277 28.8903L20.6088 33.7017C20.5979 36.4638 22.8286 38.7114 25.5906 38.7214L30.7771 38.7401C32.0818 38.7449 33.333 39.2594 34.2636 40.1739L35.5517 41.4397L36.514 42.4744C39.4885 45.6727 37.2204 50.8795 32.8527 50.8795L13.6237 50.8794Z" fill="#212F8A"/>
</g>
<g filter="url(#filter2_d_2139_128985)">
<path d="M15.8711 48.8976C13.1096 48.8976 10.8711 46.659 10.8711 43.8976L10.871 29.1243C10.8711 25.5805 15.1605 23.8113 17.6588 26.3246L17.7332 26.4109C18.5167 27.3188 18.9477 28.4781 18.9477 29.6773L18.9477 35.6787C18.9477 38.4401 21.1863 40.6787 23.9477 40.6787L31.0821 40.6787C31.9138 40.6787 32.7103 41.0144 33.291 41.6098C35.8692 44.3836 33.902 48.8975 30.1151 48.8975L15.8711 48.8976Z" fill="#212F8A"/>
</g>
<defs>
<filter id="filter0_d_2139_128985" x="0.933594" y="15.4883" width="43.3984" height="42.1289" filterUnits="userSpaceOnUse" color-interpolation-filters="sRGB">
<feFlood flood-opacity="0" result="BackgroundImageFix"/>
<feColorMatrix in="SourceAlpha" type="matrix" values="0 0 0 0 0 0 0 0 0 0 0 0 0 0 0 0 0 0 127 0" result="hardAlpha"/>
<feOffset dx="-3" dy="2"/>
<feGaussianBlur stdDeviation="1"/>
<feComposite in2="hardAlpha" operator="out"/>
<feColorMatrix type="matrix" values="0 0 0 0 0 0 0 0 0 0 0 0 0 0 0 0 0 0 0.2 0"/>
<feBlend mode="normal" in2="BackgroundImageFix" result="effect1_dropShadow_2139_128985"/>
<feBlend mode="normal" in="SourceGraphic" in2="effect1_dropShadow_2139_128985" result="shape"/>
</filter>
<filter id="filter1_i_2139_128985" x="6.62305" y="21.9102" width="31.2402" height="30.9688" filterUnits="userSpaceOnUse" color-interpolation-filters="sRGB">
<feFlood flood-opacity="0" result="BackgroundImageFix"/>
<feBlend mode="normal" in="SourceGraphic" in2="BackgroundImageFix" result="shape"/>
<feColorMatrix in="SourceAlpha" type="matrix" values="0 0 0 0 0 0 0 0 0 0 0 0 0 0 0 0 0 0 127 0" result="hardAlpha"/>
<feOffset dx="-2" dy="2"/>
<feGaussianBlur stdDeviation="1"/>
<feComposite in2="hardAlpha" operator="arithmetic" k2="-1" k3="1"/>
<feColorMatrix type="matrix" values="0 0 0 0 0 0 0 0 0 0 0 0 0 0 0 0 0 0 0.2 0"/>
<feBlend mode="normal" in2="shape" result="effect1_innerShadow_2139_128985"/>
</filter>
<filter id="filter2_d_2139_128985" x="6.87109" y="25.1445" width="27.5879" height="27.7539" filterUnits="userSpaceOnUse" color-interpolation-filters="sRGB">
<feFlood flood-opacity="0" result="BackgroundImageFix"/>
<feColorMatrix in="SourceAlpha" type="matrix" values="0 0 0 0 0 0 0 0 0 0 0 0 0 0 0 0 0 0 127 0" result="hardAlpha"/>
<feOffset dx="-2" dy="2"/>
<feGaussianBlur stdDeviation="1"/>
<feComposite in2="hardAlpha" operator="out"/>
<feColorMatrix type="matrix" values="0 0 0 0 0 0 0 0 0 0 0 0 0 0 0 0 0 0 0.2 0"/>
<feBlend mode="normal" in2="BackgroundImageFix" result="effect1_dropShadow_2139_128985"/>
<feBlend mode="normal" in="SourceGraphic" in2="effect1_dropShadow_2139_128985" result="shape"/>
</filter>
</defs>
</svg>
