<svg width="48" height="48" viewBox="0 0 48 48" fill="none" xmlns="http://www.w3.org/2000/svg">
<circle cx="24" cy="24" r="24" fill="#727BF8"/>
<g clip-path="url(#clip0_1487_1248)">
<path d="M27.8055 24.8711H16.7069V20.4244H27.8055C28.4538 20.4244 28.9045 20.5388 29.1308 20.7386C29.357 20.9384 29.4971 21.309 29.4971 21.8503V23.4469C29.4971 24.0173 29.357 24.3878 29.1308 24.5876C28.9045 24.7874 28.4538 24.8728 27.8055 24.8728V24.8711ZM28.5669 16.2322H12V35.2483H16.7069V29.0616H25.3811L29.4971 35.2483H34.7679L30.2298 29.0326C31.9029 28.7815 32.6542 28.2624 33.2738 27.4069C33.8933 26.5514 34.204 25.1836 34.204 23.3581V21.9322C34.204 20.8496 34.0909 19.9941 33.8933 19.3384C33.6958 18.6826 33.3582 18.1123 32.8787 17.6C32.3722 17.115 31.8083 16.7735 31.1313 16.5447C30.4544 16.3449 29.6085 16.2305 28.5669 16.2305V16.2322Z" fill="#192366"/>
<path d="M38.3836 16.2321C40.3808 16.2321 41.9997 14.6132 41.9997 12.6161C41.9997 10.619 40.3808 9 38.3836 9C36.3866 9 34.7676 10.619 34.7676 12.6161C34.7676 14.6132 36.3866 16.2321 38.3836 16.2321Z" fill="#192366"/>
</g>
<defs>
<clipPath id="clip0_1487_1248">
<rect width="30" height="26.25" fill="white" transform="translate(12 9)"/>
</clipPath>
</defs>
</svg>
